<mxfile host="app.diagrams.net" modified="2020-12-19T10:25:43.143Z" agent="5.0 (Windows NT 10.0; Win64; x64) AppleWebKit/537.36 (KHTML, like Gecko) Chrome/87.0.4280.88 Safari/537.36" etag="96Q48lD106BGhHlx25Fy" version="14.0.4" type="github">
  <diagram id="rGY9MWBFckBNF04L69y3" name="Page-1">
    <mxGraphModel dx="1303" dy="750" grid="0" gridSize="7" guides="1" tooltips="1" connect="1" arrows="1" fold="1" page="0" pageScale="1" pageWidth="1169" pageHeight="827" background="#ffffff" math="0" shadow="0">
      <root>
        <mxCell id="0" />
        <mxCell id="1" parent="0" />
        <mxCell id="iC9eIfRadQ6IcTy1Oc80-1" value="&lt;b&gt;Patient&lt;/b&gt;" style="rounded=0;whiteSpace=wrap;html=1;" parent="1" vertex="1">
          <mxGeometry x="210" y="217" width="120" height="60" as="geometry" />
        </mxCell>
        <mxCell id="iC9eIfRadQ6IcTy1Oc80-2" value="Password" style="ellipse;whiteSpace=wrap;html=1;" parent="1" vertex="1">
          <mxGeometry x="20" y="240" width="100" height="40" as="geometry" />
        </mxCell>
        <mxCell id="iC9eIfRadQ6IcTy1Oc80-3" value="Phone number" style="ellipse;whiteSpace=wrap;html=1;" parent="1" vertex="1">
          <mxGeometry x="161" y="23.5" width="120" height="50" as="geometry" />
        </mxCell>
        <mxCell id="iC9eIfRadQ6IcTy1Oc80-4" value="Pname" style="ellipse;whiteSpace=wrap;html=1;" parent="1" vertex="1">
          <mxGeometry x="130" y="107" width="90" height="40" as="geometry" />
        </mxCell>
        <mxCell id="iC9eIfRadQ6IcTy1Oc80-5" value="DOB" style="ellipse;whiteSpace=wrap;html=1;" parent="1" vertex="1">
          <mxGeometry x="105" y="364" width="70" height="25" as="geometry" />
        </mxCell>
        <mxCell id="iC9eIfRadQ6IcTy1Oc80-6" value="&lt;u&gt;UID&lt;/u&gt;" style="ellipse;whiteSpace=wrap;html=1;" parent="1" vertex="1">
          <mxGeometry x="77" y="310" width="80" height="30" as="geometry" />
        </mxCell>
        <mxCell id="iC9eIfRadQ6IcTy1Oc80-7" value="Address" style="ellipse;whiteSpace=wrap;html=1;" parent="1" vertex="1">
          <mxGeometry x="28" y="180" width="76" height="37" as="geometry" />
        </mxCell>
        <mxCell id="iC9eIfRadQ6IcTy1Oc80-8" value="Blood&lt;br&gt;Group" style="ellipse;whiteSpace=wrap;html=1;" parent="1" vertex="1">
          <mxGeometry x="28" y="112" width="65" height="44" as="geometry" />
        </mxCell>
        <mxCell id="iC9eIfRadQ6IcTy1Oc80-9" value="SEX" style="ellipse;whiteSpace=wrap;html=1;" parent="1" vertex="1">
          <mxGeometry x="196" y="387.1" width="60" height="34" as="geometry" />
        </mxCell>
        <mxCell id="iC9eIfRadQ6IcTy1Oc80-18" value="Relationship" style="shape=rhombus;perimeter=rhombusPerimeter;whiteSpace=wrap;html=1;align=center;" parent="1" vertex="1">
          <mxGeometry x="342" y="123.8" width="120" height="60" as="geometry" />
        </mxCell>
        <mxCell id="iC9eIfRadQ6IcTy1Oc80-19" value="Views" style="rhombus;whiteSpace=wrap;html=1;" parent="1" vertex="1">
          <mxGeometry x="350" y="133.8" width="100" height="40" as="geometry" />
        </mxCell>
        <mxCell id="iC9eIfRadQ6IcTy1Oc80-20" value="" style="rounded=0;whiteSpace=wrap;html=1;" parent="1" vertex="1">
          <mxGeometry x="403" y="74.5" width="90" height="40" as="geometry" />
        </mxCell>
        <mxCell id="iC9eIfRadQ6IcTy1Oc80-21" value="History" style="rounded=0;whiteSpace=wrap;html=1;" parent="1" vertex="1">
          <mxGeometry x="413" y="82" width="70" height="25" as="geometry" />
        </mxCell>
        <mxCell id="iC9eIfRadQ6IcTy1Oc80-24" value="Treatment" style="ellipse;whiteSpace=wrap;html=1;" parent="1" vertex="1">
          <mxGeometry x="427" y="23.5" width="97" height="35" as="geometry" />
        </mxCell>
        <mxCell id="iC9eIfRadQ6IcTy1Oc80-25" value="Disease" style="ellipse;whiteSpace=wrap;html=1;" parent="1" vertex="1">
          <mxGeometry x="540" y="23.5" width="74" height="40" as="geometry" />
        </mxCell>
        <mxCell id="66wu1TtqMLCLMsSseU4n-4" value="Provides" style="html=1;whiteSpace=wrap;aspect=fixed;shape=isoRectangle;" vertex="1" parent="1">
          <mxGeometry x="292.3300000000001" y="352.5" width="88.67" height="53.2" as="geometry" />
        </mxCell>
        <mxCell id="66wu1TtqMLCLMsSseU4n-5" value="Registers" style="html=1;whiteSpace=wrap;aspect=fixed;shape=isoRectangle;" vertex="1" parent="1">
          <mxGeometry x="399" y="308" width="93.33" height="56" as="geometry" />
        </mxCell>
        <mxCell id="66wu1TtqMLCLMsSseU4n-8" value="Provides" style="html=1;whiteSpace=wrap;aspect=fixed;shape=isoRectangle;" vertex="1" parent="1">
          <mxGeometry x="296" y="355.5" width="80" height="48" as="geometry" />
        </mxCell>
        <mxCell id="66wu1TtqMLCLMsSseU4n-9" value="Feedback" style="rounded=0;whiteSpace=wrap;html=1;" vertex="1" parent="1">
          <mxGeometry x="395" y="411" width="85" height="36" as="geometry" />
        </mxCell>
        <mxCell id="66wu1TtqMLCLMsSseU4n-10" value="Feedback" style="rounded=0;whiteSpace=wrap;html=1;" vertex="1" parent="1">
          <mxGeometry x="399" y="413" width="77" height="32" as="geometry" />
        </mxCell>
        <mxCell id="66wu1TtqMLCLMsSseU4n-11" value="Comments" style="ellipse;whiteSpace=wrap;html=1;" vertex="1" parent="1">
          <mxGeometry x="413" y="507.6" width="99" height="35" as="geometry" />
        </mxCell>
        <mxCell id="66wu1TtqMLCLMsSseU4n-12" value="Dcotor&#39;s Name" style="ellipse;whiteSpace=wrap;html=1;" vertex="1" parent="1">
          <mxGeometry x="296" y="472.6" width="104" height="35" as="geometry" />
        </mxCell>
        <mxCell id="66wu1TtqMLCLMsSseU4n-13" value="Administrator" style="rounded=0;whiteSpace=wrap;html=1;" vertex="1" parent="1">
          <mxGeometry x="650" y="411" width="92" height="49" as="geometry" />
        </mxCell>
        <mxCell id="66wu1TtqMLCLMsSseU4n-14" value="Views" style="html=1;whiteSpace=wrap;aspect=fixed;shape=isoRectangle;" vertex="1" parent="1">
          <mxGeometry x="524" y="421.1" width="66" height="39.6" as="geometry" />
        </mxCell>
        <mxCell id="66wu1TtqMLCLMsSseU4n-15" value="Password" style="ellipse;whiteSpace=wrap;html=1;" vertex="1" parent="1">
          <mxGeometry x="687" y="504" width="92" height="35" as="geometry" />
        </mxCell>
        <mxCell id="66wu1TtqMLCLMsSseU4n-16" value="&lt;b&gt;&lt;u&gt;Username&lt;/u&gt;&lt;/b&gt;" style="ellipse;whiteSpace=wrap;html=1;" vertex="1" parent="1">
          <mxGeometry x="574" y="490" width="85" height="42" as="geometry" />
        </mxCell>
        <mxCell id="66wu1TtqMLCLMsSseU4n-17" value="Reports" style="rounded=0;whiteSpace=wrap;html=1;" vertex="1" parent="1">
          <mxGeometry x="609" y="260.8" width="78" height="35" as="geometry" />
        </mxCell>
        <mxCell id="66wu1TtqMLCLMsSseU4n-18" value="Comments" style="ellipse;whiteSpace=wrap;html=1;" vertex="1" parent="1">
          <mxGeometry x="687" y="343" width="65" height="35" as="geometry" />
        </mxCell>
        <mxCell id="66wu1TtqMLCLMsSseU4n-19" value="Report" style="ellipse;whiteSpace=wrap;html=1;" vertex="1" parent="1">
          <mxGeometry x="630" y="322" width="57" height="28" as="geometry" />
        </mxCell>
        <mxCell id="66wu1TtqMLCLMsSseU4n-20" value="&lt;b&gt;&lt;u&gt;UID&lt;/u&gt;&lt;/b&gt;" style="ellipse;whiteSpace=wrap;html=1;" vertex="1" parent="1">
          <mxGeometry x="564.66" y="322" width="42" height="28" as="geometry" />
        </mxCell>
        <mxCell id="66wu1TtqMLCLMsSseU4n-21" value="Uploads" style="html=1;whiteSpace=wrap;aspect=fixed;shape=isoRectangle;" vertex="1" parent="1">
          <mxGeometry x="721" y="287" width="73" height="43.8" as="geometry" />
        </mxCell>
        <mxCell id="66wu1TtqMLCLMsSseU4n-22" value="" style="endArrow=none;html=1;exitX=0;exitY=0;exitDx=0;exitDy=0;entryX=1;entryY=1;entryDx=0;entryDy=0;" edge="1" parent="1" source="iC9eIfRadQ6IcTy1Oc80-1" target="iC9eIfRadQ6IcTy1Oc80-4">
          <mxGeometry width="50" height="50" relative="1" as="geometry">
            <mxPoint x="658" y="330" as="sourcePoint" />
            <mxPoint x="708" y="280" as="targetPoint" />
          </mxGeometry>
        </mxCell>
        <mxCell id="66wu1TtqMLCLMsSseU4n-23" value="" style="endArrow=none;html=1;exitX=0;exitY=0.25;exitDx=0;exitDy=0;entryX=1;entryY=1;entryDx=0;entryDy=0;" edge="1" parent="1" source="iC9eIfRadQ6IcTy1Oc80-1" target="iC9eIfRadQ6IcTy1Oc80-8">
          <mxGeometry width="50" height="50" relative="1" as="geometry">
            <mxPoint x="658" y="330" as="sourcePoint" />
            <mxPoint x="708" y="280" as="targetPoint" />
          </mxGeometry>
        </mxCell>
        <mxCell id="66wu1TtqMLCLMsSseU4n-24" value="" style="endArrow=none;html=1;exitX=0;exitY=0.5;exitDx=0;exitDy=0;entryX=1;entryY=0.5;entryDx=0;entryDy=0;" edge="1" parent="1" source="iC9eIfRadQ6IcTy1Oc80-1" target="iC9eIfRadQ6IcTy1Oc80-7">
          <mxGeometry width="50" height="50" relative="1" as="geometry">
            <mxPoint x="658" y="330" as="sourcePoint" />
            <mxPoint x="708" y="280" as="targetPoint" />
          </mxGeometry>
        </mxCell>
        <mxCell id="66wu1TtqMLCLMsSseU4n-25" value="" style="endArrow=none;html=1;exitX=0;exitY=0.75;exitDx=0;exitDy=0;entryX=1;entryY=0.5;entryDx=0;entryDy=0;" edge="1" parent="1" source="iC9eIfRadQ6IcTy1Oc80-1" target="iC9eIfRadQ6IcTy1Oc80-2">
          <mxGeometry width="50" height="50" relative="1" as="geometry">
            <mxPoint x="658" y="330" as="sourcePoint" />
            <mxPoint x="708" y="280" as="targetPoint" />
          </mxGeometry>
        </mxCell>
        <mxCell id="66wu1TtqMLCLMsSseU4n-26" value="" style="endArrow=none;html=1;exitX=0;exitY=1;exitDx=0;exitDy=0;entryX=1;entryY=0.5;entryDx=0;entryDy=0;" edge="1" parent="1" source="iC9eIfRadQ6IcTy1Oc80-1" target="iC9eIfRadQ6IcTy1Oc80-6">
          <mxGeometry width="50" height="50" relative="1" as="geometry">
            <mxPoint x="658" y="330" as="sourcePoint" />
            <mxPoint x="708" y="280" as="targetPoint" />
          </mxGeometry>
        </mxCell>
        <mxCell id="66wu1TtqMLCLMsSseU4n-27" value="" style="endArrow=none;html=1;exitX=0.25;exitY=1;exitDx=0;exitDy=0;entryX=1;entryY=0;entryDx=0;entryDy=0;" edge="1" parent="1" source="iC9eIfRadQ6IcTy1Oc80-1" target="iC9eIfRadQ6IcTy1Oc80-5">
          <mxGeometry width="50" height="50" relative="1" as="geometry">
            <mxPoint x="658" y="330" as="sourcePoint" />
            <mxPoint x="708" y="280" as="targetPoint" />
          </mxGeometry>
        </mxCell>
        <mxCell id="66wu1TtqMLCLMsSseU4n-28" value="" style="endArrow=none;html=1;exitX=0.5;exitY=1;exitDx=0;exitDy=0;entryX=0.5;entryY=0;entryDx=0;entryDy=0;" edge="1" parent="1" source="iC9eIfRadQ6IcTy1Oc80-1" target="iC9eIfRadQ6IcTy1Oc80-9">
          <mxGeometry width="50" height="50" relative="1" as="geometry">
            <mxPoint x="658" y="330" as="sourcePoint" />
            <mxPoint x="336" y="399" as="targetPoint" />
          </mxGeometry>
        </mxCell>
        <mxCell id="66wu1TtqMLCLMsSseU4n-29" value="" style="endArrow=none;html=1;exitX=0.75;exitY=1;exitDx=0;exitDy=0;entryX=0.48;entryY=-0.033;entryDx=0;entryDy=0;entryPerimeter=0;" edge="1" parent="1" source="iC9eIfRadQ6IcTy1Oc80-1" target="66wu1TtqMLCLMsSseU4n-8">
          <mxGeometry width="50" height="50" relative="1" as="geometry">
            <mxPoint x="658" y="330" as="sourcePoint" />
            <mxPoint x="708" y="280" as="targetPoint" />
          </mxGeometry>
        </mxCell>
        <mxCell id="66wu1TtqMLCLMsSseU4n-30" value="" style="endArrow=none;html=1;exitX=0.794;exitY=0.752;exitDx=0;exitDy=0;exitPerimeter=0;entryX=0.5;entryY=0;entryDx=0;entryDy=0;" edge="1" parent="1" source="66wu1TtqMLCLMsSseU4n-4" target="66wu1TtqMLCLMsSseU4n-9">
          <mxGeometry width="50" height="50" relative="1" as="geometry">
            <mxPoint x="658" y="330" as="sourcePoint" />
            <mxPoint x="708" y="280" as="targetPoint" />
          </mxGeometry>
        </mxCell>
        <mxCell id="66wu1TtqMLCLMsSseU4n-31" value="" style="endArrow=none;html=1;exitX=0.25;exitY=1;exitDx=0;exitDy=0;entryX=0.5;entryY=0;entryDx=0;entryDy=0;" edge="1" parent="1" source="66wu1TtqMLCLMsSseU4n-10" target="66wu1TtqMLCLMsSseU4n-12">
          <mxGeometry width="50" height="50" relative="1" as="geometry">
            <mxPoint x="658" y="330" as="sourcePoint" />
            <mxPoint x="708" y="280" as="targetPoint" />
          </mxGeometry>
        </mxCell>
        <mxCell id="66wu1TtqMLCLMsSseU4n-32" value="" style="endArrow=none;html=1;exitX=0.75;exitY=1;exitDx=0;exitDy=0;entryX=0.5;entryY=0;entryDx=0;entryDy=0;" edge="1" parent="1" source="66wu1TtqMLCLMsSseU4n-10" target="66wu1TtqMLCLMsSseU4n-11">
          <mxGeometry width="50" height="50" relative="1" as="geometry">
            <mxPoint x="658" y="330" as="sourcePoint" />
            <mxPoint x="588" y="525" as="targetPoint" />
          </mxGeometry>
        </mxCell>
        <mxCell id="66wu1TtqMLCLMsSseU4n-33" value="" style="endArrow=none;html=1;exitX=1;exitY=1;exitDx=0;exitDy=0;entryX=0.171;entryY=0.334;entryDx=0;entryDy=0;entryPerimeter=0;" edge="1" parent="1" source="iC9eIfRadQ6IcTy1Oc80-1" target="66wu1TtqMLCLMsSseU4n-5">
          <mxGeometry width="50" height="50" relative="1" as="geometry">
            <mxPoint x="756" y="330" as="sourcePoint" />
            <mxPoint x="806" y="280" as="targetPoint" />
          </mxGeometry>
        </mxCell>
        <mxCell id="66wu1TtqMLCLMsSseU4n-34" value="" style="endArrow=none;html=1;entryX=0;entryY=0.25;entryDx=0;entryDy=0;exitX=0.726;exitY=0.837;exitDx=0;exitDy=0;exitPerimeter=0;" edge="1" parent="1" source="66wu1TtqMLCLMsSseU4n-5" target="66wu1TtqMLCLMsSseU4n-13">
          <mxGeometry width="50" height="50" relative="1" as="geometry">
            <mxPoint x="588" y="378" as="sourcePoint" />
            <mxPoint x="806" y="280" as="targetPoint" />
          </mxGeometry>
        </mxCell>
        <mxCell id="66wu1TtqMLCLMsSseU4n-35" value="" style="endArrow=none;html=1;exitX=1;exitY=0.5;exitDx=0;exitDy=0;entryX=0.453;entryY=0.897;entryDx=0;entryDy=0;entryPerimeter=0;" edge="1" parent="1" source="66wu1TtqMLCLMsSseU4n-10" target="66wu1TtqMLCLMsSseU4n-14">
          <mxGeometry width="50" height="50" relative="1" as="geometry">
            <mxPoint x="756" y="330" as="sourcePoint" />
            <mxPoint x="806" y="280" as="targetPoint" />
          </mxGeometry>
        </mxCell>
        <mxCell id="66wu1TtqMLCLMsSseU4n-36" value="" style="endArrow=none;html=1;entryX=0;entryY=0.75;entryDx=0;entryDy=0;exitX=0.813;exitY=0.224;exitDx=0;exitDy=0;exitPerimeter=0;" edge="1" parent="1" source="66wu1TtqMLCLMsSseU4n-14" target="66wu1TtqMLCLMsSseU4n-13">
          <mxGeometry width="50" height="50" relative="1" as="geometry">
            <mxPoint x="693" y="435" as="sourcePoint" />
            <mxPoint x="806" y="280" as="targetPoint" />
          </mxGeometry>
        </mxCell>
        <mxCell id="66wu1TtqMLCLMsSseU4n-37" value="" style="endArrow=none;html=1;exitX=0.25;exitY=1;exitDx=0;exitDy=0;entryX=0.5;entryY=0;entryDx=0;entryDy=0;" edge="1" parent="1" source="66wu1TtqMLCLMsSseU4n-13" target="66wu1TtqMLCLMsSseU4n-16">
          <mxGeometry width="50" height="50" relative="1" as="geometry">
            <mxPoint x="756" y="330" as="sourcePoint" />
            <mxPoint x="806" y="280" as="targetPoint" />
          </mxGeometry>
        </mxCell>
        <mxCell id="66wu1TtqMLCLMsSseU4n-38" value="" style="endArrow=none;html=1;exitX=0.75;exitY=1;exitDx=0;exitDy=0;" edge="1" parent="1" source="66wu1TtqMLCLMsSseU4n-13">
          <mxGeometry width="50" height="50" relative="1" as="geometry">
            <mxPoint x="756" y="330" as="sourcePoint" />
            <mxPoint x="721" y="504" as="targetPoint" />
          </mxGeometry>
        </mxCell>
        <mxCell id="66wu1TtqMLCLMsSseU4n-39" value="" style="endArrow=none;html=1;exitX=0.25;exitY=1;exitDx=0;exitDy=0;entryX=0;entryY=0;entryDx=0;entryDy=0;" edge="1" parent="1" source="66wu1TtqMLCLMsSseU4n-17" target="66wu1TtqMLCLMsSseU4n-20">
          <mxGeometry width="50" height="50" relative="1" as="geometry">
            <mxPoint x="756" y="169" as="sourcePoint" />
            <mxPoint x="806" y="119" as="targetPoint" />
          </mxGeometry>
        </mxCell>
        <mxCell id="66wu1TtqMLCLMsSseU4n-40" value="" style="endArrow=none;html=1;exitX=0.5;exitY=1;exitDx=0;exitDy=0;entryX=0.5;entryY=0;entryDx=0;entryDy=0;" edge="1" parent="1" source="66wu1TtqMLCLMsSseU4n-17" target="66wu1TtqMLCLMsSseU4n-19">
          <mxGeometry width="50" height="50" relative="1" as="geometry">
            <mxPoint x="756" y="169" as="sourcePoint" />
            <mxPoint x="806" y="119" as="targetPoint" />
          </mxGeometry>
        </mxCell>
        <mxCell id="66wu1TtqMLCLMsSseU4n-41" value="" style="endArrow=none;html=1;exitX=1;exitY=0.75;exitDx=0;exitDy=0;entryX=0;entryY=0;entryDx=0;entryDy=0;" edge="1" parent="1" source="66wu1TtqMLCLMsSseU4n-17" target="66wu1TtqMLCLMsSseU4n-18">
          <mxGeometry width="50" height="50" relative="1" as="geometry">
            <mxPoint x="756" y="169" as="sourcePoint" />
            <mxPoint x="806" y="119" as="targetPoint" />
          </mxGeometry>
        </mxCell>
        <mxCell id="66wu1TtqMLCLMsSseU4n-42" value="" style="endArrow=none;html=1;exitX=1;exitY=0.5;exitDx=0;exitDy=0;entryX=0.206;entryY=0.213;entryDx=0;entryDy=0;entryPerimeter=0;" edge="1" parent="1" source="66wu1TtqMLCLMsSseU4n-17" target="66wu1TtqMLCLMsSseU4n-21">
          <mxGeometry width="50" height="50" relative="1" as="geometry">
            <mxPoint x="756" y="169" as="sourcePoint" />
            <mxPoint x="806" y="119" as="targetPoint" />
          </mxGeometry>
        </mxCell>
        <mxCell id="66wu1TtqMLCLMsSseU4n-43" value="" style="endArrow=none;html=1;exitX=0.25;exitY=0;exitDx=0;exitDy=0;entryX=0.5;entryY=1;entryDx=0;entryDy=0;" edge="1" parent="1" source="iC9eIfRadQ6IcTy1Oc80-1" target="iC9eIfRadQ6IcTy1Oc80-3">
          <mxGeometry width="50" height="50" relative="1" as="geometry">
            <mxPoint x="756" y="239" as="sourcePoint" />
            <mxPoint x="806" y="189" as="targetPoint" />
          </mxGeometry>
        </mxCell>
        <mxCell id="66wu1TtqMLCLMsSseU4n-44" value="" style="endArrow=none;html=1;exitX=0.5;exitY=0;exitDx=0;exitDy=0;entryX=0;entryY=1;entryDx=0;entryDy=0;" edge="1" parent="1" source="iC9eIfRadQ6IcTy1Oc80-1" target="iC9eIfRadQ6IcTy1Oc80-18">
          <mxGeometry width="50" height="50" relative="1" as="geometry">
            <mxPoint x="756" y="239" as="sourcePoint" />
            <mxPoint x="806" y="189" as="targetPoint" />
          </mxGeometry>
        </mxCell>
        <mxCell id="66wu1TtqMLCLMsSseU4n-45" value="" style="endArrow=none;html=1;exitX=1;exitY=0;exitDx=0;exitDy=0;" edge="1" parent="1" source="iC9eIfRadQ6IcTy1Oc80-18">
          <mxGeometry width="50" height="50" relative="1" as="geometry">
            <mxPoint x="756" y="239" as="sourcePoint" />
            <mxPoint x="448" y="119" as="targetPoint" />
          </mxGeometry>
        </mxCell>
        <mxCell id="66wu1TtqMLCLMsSseU4n-46" value="" style="endArrow=none;html=1;exitX=0.25;exitY=0;exitDx=0;exitDy=0;entryX=0.5;entryY=1;entryDx=0;entryDy=0;" edge="1" parent="1" source="iC9eIfRadQ6IcTy1Oc80-20" target="iC9eIfRadQ6IcTy1Oc80-24">
          <mxGeometry width="50" height="50" relative="1" as="geometry">
            <mxPoint x="756" y="239" as="sourcePoint" />
            <mxPoint x="806" y="189" as="targetPoint" />
          </mxGeometry>
        </mxCell>
        <mxCell id="66wu1TtqMLCLMsSseU4n-47" value="" style="endArrow=none;html=1;exitX=0.75;exitY=0;exitDx=0;exitDy=0;entryX=0.5;entryY=1;entryDx=0;entryDy=0;" edge="1" parent="1" source="iC9eIfRadQ6IcTy1Oc80-20" target="iC9eIfRadQ6IcTy1Oc80-25">
          <mxGeometry width="50" height="50" relative="1" as="geometry">
            <mxPoint x="756" y="239" as="sourcePoint" />
            <mxPoint x="806" y="189" as="targetPoint" />
          </mxGeometry>
        </mxCell>
        <mxCell id="66wu1TtqMLCLMsSseU4n-49" value="" style="endArrow=none;html=1;exitX=1;exitY=0.5;exitDx=0;exitDy=0;" edge="1" parent="1" source="66wu1TtqMLCLMsSseU4n-6">
          <mxGeometry width="50" height="50" relative="1" as="geometry">
            <mxPoint x="756" y="239" as="sourcePoint" />
            <mxPoint x="553" y="285" as="targetPoint" />
          </mxGeometry>
        </mxCell>
        <mxCell id="66wu1TtqMLCLMsSseU4n-50" value="" style="endArrow=none;html=1;exitX=0.878;exitY=0.409;exitDx=0;exitDy=0;exitPerimeter=0;entryX=0;entryY=0.5;entryDx=0;entryDy=0;" edge="1" parent="1" source="66wu1TtqMLCLMsSseU4n-6" target="66wu1TtqMLCLMsSseU4n-17">
          <mxGeometry width="50" height="50" relative="1" as="geometry">
            <mxPoint x="756" y="239" as="sourcePoint" />
            <mxPoint x="806" y="189" as="targetPoint" />
          </mxGeometry>
        </mxCell>
        <mxCell id="66wu1TtqMLCLMsSseU4n-51" value="Appointment" style="rounded=0;whiteSpace=wrap;html=1;" vertex="1" parent="1">
          <mxGeometry x="636" y="156" width="85" height="35" as="geometry" />
        </mxCell>
        <mxCell id="66wu1TtqMLCLMsSseU4n-53" value="Views" style="html=1;whiteSpace=wrap;aspect=fixed;shape=isoRectangle;" vertex="1" parent="1">
          <mxGeometry x="500.99999999999994" y="123.8" width="73" height="43.8" as="geometry" />
        </mxCell>
        <mxCell id="66wu1TtqMLCLMsSseU4n-54" value="" style="endArrow=none;html=1;entryX=0;entryY=0.5;entryDx=0;entryDy=0;exitX=0.83;exitY=0.224;exitDx=0;exitDy=0;exitPerimeter=0;" edge="1" parent="1" source="66wu1TtqMLCLMsSseU4n-7" target="66wu1TtqMLCLMsSseU4n-51">
          <mxGeometry width="50" height="50" relative="1" as="geometry">
            <mxPoint x="595" y="210" as="sourcePoint" />
            <mxPoint x="771" y="189" as="targetPoint" />
          </mxGeometry>
        </mxCell>
        <mxCell id="66wu1TtqMLCLMsSseU4n-118" value="1" style="edgeLabel;html=1;align=center;verticalAlign=middle;resizable=0;points=[];" vertex="1" connectable="0" parent="66wu1TtqMLCLMsSseU4n-54">
          <mxGeometry x="-0.1233" y="-8" relative="1" as="geometry">
            <mxPoint as="offset" />
          </mxGeometry>
        </mxCell>
        <mxCell id="66wu1TtqMLCLMsSseU4n-55" value="Doctor" style="rounded=0;whiteSpace=wrap;html=1;" vertex="1" parent="1">
          <mxGeometry x="784" y="243.8" width="78" height="36.2" as="geometry" />
        </mxCell>
        <mxCell id="66wu1TtqMLCLMsSseU4n-7" value="Schedules" style="html=1;whiteSpace=wrap;aspect=fixed;shape=isoRectangle;" vertex="1" parent="1">
          <mxGeometry x="433.34000000000003" y="210" width="93.33" height="56" as="geometry" />
        </mxCell>
        <mxCell id="66wu1TtqMLCLMsSseU4n-58" value="" style="endArrow=none;html=1;exitX=1;exitY=0.25;exitDx=0;exitDy=0;" edge="1" parent="1" source="iC9eIfRadQ6IcTy1Oc80-1" target="66wu1TtqMLCLMsSseU4n-7">
          <mxGeometry width="50" height="50" relative="1" as="geometry">
            <mxPoint x="330" y="232.0000000000001" as="sourcePoint" />
            <mxPoint x="546.0000000000002" y="230.9999999999999" as="targetPoint" />
          </mxGeometry>
        </mxCell>
        <mxCell id="66wu1TtqMLCLMsSseU4n-6" value="Views" style="html=1;whiteSpace=wrap;aspect=fixed;shape=isoRectangle;" vertex="1" parent="1">
          <mxGeometry x="483" y="266" width="81.66" height="49" as="geometry" />
        </mxCell>
        <mxCell id="66wu1TtqMLCLMsSseU4n-59" value="" style="endArrow=none;html=1;exitX=1;exitY=0.5;exitDx=0;exitDy=0;entryX=0.257;entryY=0.313;entryDx=0;entryDy=0;entryPerimeter=0;" edge="1" parent="1" source="iC9eIfRadQ6IcTy1Oc80-1" target="66wu1TtqMLCLMsSseU4n-6">
          <mxGeometry width="50" height="50" relative="1" as="geometry">
            <mxPoint x="330" y="247" as="sourcePoint" />
            <mxPoint x="553" y="285" as="targetPoint" />
          </mxGeometry>
        </mxCell>
        <mxCell id="66wu1TtqMLCLMsSseU4n-63" value="" style="endArrow=none;html=1;exitX=0.75;exitY=1;exitDx=0;exitDy=0;entryX=0.219;entryY=0.27;entryDx=0;entryDy=0;entryPerimeter=0;" edge="1" parent="1" source="iC9eIfRadQ6IcTy1Oc80-20" target="66wu1TtqMLCLMsSseU4n-53">
          <mxGeometry width="50" height="50" relative="1" as="geometry">
            <mxPoint x="567" y="365" as="sourcePoint" />
            <mxPoint x="617" y="315" as="targetPoint" />
          </mxGeometry>
        </mxCell>
        <mxCell id="66wu1TtqMLCLMsSseU4n-64" value="" style="endArrow=none;html=1;entryX=0;entryY=0.5;entryDx=0;entryDy=0;" edge="1" parent="1">
          <mxGeometry width="50" height="50" relative="1" as="geometry">
            <mxPoint x="554" y="153" as="sourcePoint" />
            <mxPoint x="784" y="260.9000000000001" as="targetPoint" />
            <Array as="points" />
          </mxGeometry>
        </mxCell>
        <mxCell id="66wu1TtqMLCLMsSseU4n-117" value="n" style="edgeLabel;html=1;align=center;verticalAlign=middle;resizable=0;points=[];" vertex="1" connectable="0" parent="66wu1TtqMLCLMsSseU4n-64">
          <mxGeometry x="0.3956" y="5" relative="1" as="geometry">
            <mxPoint y="-7" as="offset" />
          </mxGeometry>
        </mxCell>
        <mxCell id="66wu1TtqMLCLMsSseU4n-66" value="" style="endArrow=none;html=1;exitX=0.802;exitY=0.238;exitDx=0;exitDy=0;exitPerimeter=0;entryX=0.25;entryY=1;entryDx=0;entryDy=0;" edge="1" parent="1" source="66wu1TtqMLCLMsSseU4n-21" target="66wu1TtqMLCLMsSseU4n-55">
          <mxGeometry width="50" height="50" relative="1" as="geometry">
            <mxPoint x="567" y="365" as="sourcePoint" />
            <mxPoint x="617" y="315" as="targetPoint" />
          </mxGeometry>
        </mxCell>
        <mxCell id="66wu1TtqMLCLMsSseU4n-67" value="Views" style="html=1;whiteSpace=wrap;aspect=fixed;shape=isoRectangle;" vertex="1" parent="1">
          <mxGeometry x="742" y="183.8" width="73" height="43.8" as="geometry" />
        </mxCell>
        <mxCell id="66wu1TtqMLCLMsSseU4n-68" value="" style="endArrow=none;html=1;exitX=0.75;exitY=1;exitDx=0;exitDy=0;" edge="1" parent="1" source="66wu1TtqMLCLMsSseU4n-51">
          <mxGeometry width="50" height="50" relative="1" as="geometry">
            <mxPoint x="567" y="365" as="sourcePoint" />
            <mxPoint x="756" y="198" as="targetPoint" />
          </mxGeometry>
        </mxCell>
        <mxCell id="66wu1TtqMLCLMsSseU4n-69" value="" style="endArrow=none;html=1;exitX=0.725;exitY=0.815;exitDx=0;exitDy=0;exitPerimeter=0;entryX=0.25;entryY=0;entryDx=0;entryDy=0;" edge="1" parent="1" source="66wu1TtqMLCLMsSseU4n-67" target="66wu1TtqMLCLMsSseU4n-55">
          <mxGeometry width="50" height="50" relative="1" as="geometry">
            <mxPoint x="567" y="365" as="sourcePoint" />
            <mxPoint x="617" y="315" as="targetPoint" />
          </mxGeometry>
        </mxCell>
        <mxCell id="66wu1TtqMLCLMsSseU4n-70" value="Registers" style="html=1;whiteSpace=wrap;aspect=fixed;shape=isoRectangle;" vertex="1" parent="1">
          <mxGeometry x="749" y="355.5" width="101" height="60.6" as="geometry" />
        </mxCell>
        <mxCell id="66wu1TtqMLCLMsSseU4n-71" value="" style="endArrow=none;html=1;exitX=1;exitY=0.25;exitDx=0;exitDy=0;entryX=0.252;entryY=0.768;entryDx=0;entryDy=0;entryPerimeter=0;" edge="1" parent="1" source="66wu1TtqMLCLMsSseU4n-13" target="66wu1TtqMLCLMsSseU4n-70">
          <mxGeometry width="50" height="50" relative="1" as="geometry">
            <mxPoint x="567" y="365" as="sourcePoint" />
            <mxPoint x="617" y="315" as="targetPoint" />
          </mxGeometry>
        </mxCell>
        <mxCell id="66wu1TtqMLCLMsSseU4n-72" value="" style="endArrow=none;html=1;exitX=0.689;exitY=0.125;exitDx=0;exitDy=0;exitPerimeter=0;entryX=0.5;entryY=1;entryDx=0;entryDy=0;" edge="1" parent="1" source="66wu1TtqMLCLMsSseU4n-70" target="66wu1TtqMLCLMsSseU4n-55">
          <mxGeometry width="50" height="50" relative="1" as="geometry">
            <mxPoint x="567" y="365" as="sourcePoint" />
            <mxPoint x="617" y="315" as="targetPoint" />
          </mxGeometry>
        </mxCell>
        <mxCell id="66wu1TtqMLCLMsSseU4n-73" value="&lt;u&gt;UID&lt;/u&gt;" style="ellipse;whiteSpace=wrap;html=1;" vertex="1" parent="1">
          <mxGeometry x="606.66" y="80.5" width="50" height="28" as="geometry" />
        </mxCell>
        <mxCell id="66wu1TtqMLCLMsSseU4n-77" value="Date" style="ellipse;whiteSpace=wrap;html=1;" vertex="1" parent="1">
          <mxGeometry x="723" y="73.5" width="71" height="28" as="geometry" />
        </mxCell>
        <mxCell id="66wu1TtqMLCLMsSseU4n-78" value="Time" style="ellipse;whiteSpace=wrap;html=1;" vertex="1" parent="1">
          <mxGeometry x="771" y="117.80000000000001" width="57" height="29.2" as="geometry" />
        </mxCell>
        <mxCell id="66wu1TtqMLCLMsSseU4n-81" value="" style="endArrow=none;html=1;exitX=0.25;exitY=0;exitDx=0;exitDy=0;entryX=0.5;entryY=1;entryDx=0;entryDy=0;" edge="1" parent="1" source="66wu1TtqMLCLMsSseU4n-51" target="66wu1TtqMLCLMsSseU4n-73">
          <mxGeometry width="50" height="50" relative="1" as="geometry">
            <mxPoint x="567" y="365" as="sourcePoint" />
            <mxPoint x="617" y="315" as="targetPoint" />
          </mxGeometry>
        </mxCell>
        <mxCell id="66wu1TtqMLCLMsSseU4n-82" value="" style="endArrow=none;html=1;" edge="1" parent="1">
          <mxGeometry width="50" height="50" relative="1" as="geometry">
            <mxPoint x="679" y="84" as="sourcePoint" />
            <mxPoint x="672" y="154" as="targetPoint" />
          </mxGeometry>
        </mxCell>
        <mxCell id="66wu1TtqMLCLMsSseU4n-83" value="" style="endArrow=none;html=1;exitX=0.75;exitY=0;exitDx=0;exitDy=0;entryX=0;entryY=1;entryDx=0;entryDy=0;" edge="1" parent="1" source="66wu1TtqMLCLMsSseU4n-51" target="66wu1TtqMLCLMsSseU4n-77">
          <mxGeometry width="50" height="50" relative="1" as="geometry">
            <mxPoint x="567" y="365" as="sourcePoint" />
            <mxPoint x="617" y="315" as="targetPoint" />
          </mxGeometry>
        </mxCell>
        <mxCell id="66wu1TtqMLCLMsSseU4n-84" value="" style="endArrow=none;html=1;exitX=1;exitY=0.25;exitDx=0;exitDy=0;entryX=0;entryY=0.5;entryDx=0;entryDy=0;" edge="1" parent="1" source="66wu1TtqMLCLMsSseU4n-51" target="66wu1TtqMLCLMsSseU4n-78">
          <mxGeometry width="50" height="50" relative="1" as="geometry">
            <mxPoint x="567" y="365" as="sourcePoint" />
            <mxPoint x="617" y="315" as="targetPoint" />
          </mxGeometry>
        </mxCell>
        <mxCell id="66wu1TtqMLCLMsSseU4n-85" value="Approves" style="html=1;whiteSpace=wrap;aspect=fixed;shape=isoRectangle;" vertex="1" parent="1">
          <mxGeometry x="815" y="180" width="81.67" height="49" as="geometry" />
        </mxCell>
        <mxCell id="66wu1TtqMLCLMsSseU4n-86" value="Staff" style="rounded=0;whiteSpace=wrap;html=1;" vertex="1" parent="1">
          <mxGeometry x="938" y="156" width="71" height="35" as="geometry" />
        </mxCell>
        <mxCell id="66wu1TtqMLCLMsSseU4n-87" value="" style="endArrow=none;html=1;entryX=0;entryY=0.75;entryDx=0;entryDy=0;" edge="1" parent="1" target="66wu1TtqMLCLMsSseU4n-86">
          <mxGeometry width="50" height="50" relative="1" as="geometry">
            <mxPoint x="896" y="205" as="sourcePoint" />
            <mxPoint x="750" y="350" as="targetPoint" />
          </mxGeometry>
        </mxCell>
        <mxCell id="66wu1TtqMLCLMsSseU4n-88" value="&lt;u&gt;SID&lt;/u&gt;" style="ellipse;whiteSpace=wrap;html=1;" vertex="1" parent="1">
          <mxGeometry x="889" y="75.8" width="64" height="36.2" as="geometry" />
        </mxCell>
        <mxCell id="66wu1TtqMLCLMsSseU4n-90" value="Password" style="ellipse;whiteSpace=wrap;html=1;" vertex="1" parent="1">
          <mxGeometry x="959" y="59.5" width="85" height="31.5" as="geometry" />
        </mxCell>
        <mxCell id="66wu1TtqMLCLMsSseU4n-91" value="Sname" style="ellipse;whiteSpace=wrap;html=1;" vertex="1" parent="1">
          <mxGeometry x="1044" y="156" width="78" height="42" as="geometry" />
        </mxCell>
        <mxCell id="66wu1TtqMLCLMsSseU4n-93" value="" style="endArrow=none;html=1;exitX=0.25;exitY=0;exitDx=0;exitDy=0;entryX=0.5;entryY=1;entryDx=0;entryDy=0;" edge="1" parent="1" source="66wu1TtqMLCLMsSseU4n-86" target="66wu1TtqMLCLMsSseU4n-88">
          <mxGeometry width="50" height="50" relative="1" as="geometry">
            <mxPoint x="700" y="400" as="sourcePoint" />
            <mxPoint x="750" y="350" as="targetPoint" />
          </mxGeometry>
        </mxCell>
        <mxCell id="66wu1TtqMLCLMsSseU4n-94" value="" style="endArrow=none;html=1;exitX=0.5;exitY=0;exitDx=0;exitDy=0;entryX=0.5;entryY=1;entryDx=0;entryDy=0;" edge="1" parent="1" source="66wu1TtqMLCLMsSseU4n-86" target="66wu1TtqMLCLMsSseU4n-90">
          <mxGeometry width="50" height="50" relative="1" as="geometry">
            <mxPoint x="861" y="211" as="sourcePoint" />
            <mxPoint x="911" y="161" as="targetPoint" />
          </mxGeometry>
        </mxCell>
        <mxCell id="66wu1TtqMLCLMsSseU4n-95" value="" style="endArrow=none;html=1;exitX=1;exitY=0.5;exitDx=0;exitDy=0;entryX=0;entryY=0.5;entryDx=0;entryDy=0;" edge="1" parent="1" source="66wu1TtqMLCLMsSseU4n-86" target="66wu1TtqMLCLMsSseU4n-91">
          <mxGeometry width="50" height="50" relative="1" as="geometry">
            <mxPoint x="861" y="211" as="sourcePoint" />
            <mxPoint x="911" y="161" as="targetPoint" />
          </mxGeometry>
        </mxCell>
        <mxCell id="66wu1TtqMLCLMsSseU4n-96" value="&lt;u&gt;DID&lt;/u&gt;" style="ellipse;whiteSpace=wrap;html=1;" vertex="1" parent="1">
          <mxGeometry x="906.5" y="240" width="50" height="28" as="geometry" />
        </mxCell>
        <mxCell id="66wu1TtqMLCLMsSseU4n-97" value="Qualification" style="ellipse;whiteSpace=wrap;html=1;" vertex="1" parent="1">
          <mxGeometry x="965" y="328" width="71" height="35" as="geometry" />
        </mxCell>
        <mxCell id="66wu1TtqMLCLMsSseU4n-98" value="Phone number" style="ellipse;whiteSpace=wrap;html=1;" vertex="1" parent="1">
          <mxGeometry x="925" y="270" width="71" height="28" as="geometry" />
        </mxCell>
        <mxCell id="66wu1TtqMLCLMsSseU4n-99" value="Specialization" style="ellipse;whiteSpace=wrap;html=1;" vertex="1" parent="1">
          <mxGeometry x="877.5" y="354" width="92" height="35" as="geometry" />
        </mxCell>
        <mxCell id="66wu1TtqMLCLMsSseU4n-101" value="Dname" style="ellipse;whiteSpace=wrap;html=1;" vertex="1" parent="1">
          <mxGeometry x="916" y="300.8" width="53.5" height="33.2" as="geometry" />
        </mxCell>
        <mxCell id="66wu1TtqMLCLMsSseU4n-102" value="" style="endArrow=none;html=1;exitX=1;exitY=0.5;exitDx=0;exitDy=0;entryX=0;entryY=0.5;entryDx=0;entryDy=0;" edge="1" parent="1" source="66wu1TtqMLCLMsSseU4n-55" target="66wu1TtqMLCLMsSseU4n-96">
          <mxGeometry width="50" height="50" relative="1" as="geometry">
            <mxPoint x="742" y="302" as="sourcePoint" />
            <mxPoint x="792" y="252" as="targetPoint" />
          </mxGeometry>
        </mxCell>
        <mxCell id="66wu1TtqMLCLMsSseU4n-103" value="" style="endArrow=none;html=1;exitX=1;exitY=0.75;exitDx=0;exitDy=0;entryX=0;entryY=0.5;entryDx=0;entryDy=0;" edge="1" parent="1" source="66wu1TtqMLCLMsSseU4n-55" target="66wu1TtqMLCLMsSseU4n-98">
          <mxGeometry width="50" height="50" relative="1" as="geometry">
            <mxPoint x="742" y="302" as="sourcePoint" />
            <mxPoint x="792" y="252" as="targetPoint" />
          </mxGeometry>
        </mxCell>
        <mxCell id="66wu1TtqMLCLMsSseU4n-104" value="" style="endArrow=none;html=1;exitX=1;exitY=1;exitDx=0;exitDy=0;entryX=-0.027;entryY=0.315;entryDx=0;entryDy=0;entryPerimeter=0;" edge="1" parent="1" source="66wu1TtqMLCLMsSseU4n-55" target="66wu1TtqMLCLMsSseU4n-101">
          <mxGeometry width="50" height="50" relative="1" as="geometry">
            <mxPoint x="742" y="302" as="sourcePoint" />
            <mxPoint x="792" y="252" as="targetPoint" />
          </mxGeometry>
        </mxCell>
        <mxCell id="66wu1TtqMLCLMsSseU4n-105" value="" style="endArrow=none;html=1;exitX=0.75;exitY=1;exitDx=0;exitDy=0;entryX=0;entryY=0;entryDx=0;entryDy=0;" edge="1" parent="1" source="66wu1TtqMLCLMsSseU4n-55" target="66wu1TtqMLCLMsSseU4n-99">
          <mxGeometry width="50" height="50" relative="1" as="geometry">
            <mxPoint x="742" y="302" as="sourcePoint" />
            <mxPoint x="792" y="252" as="targetPoint" />
          </mxGeometry>
        </mxCell>
        <mxCell id="66wu1TtqMLCLMsSseU4n-106" value="Registers" style="html=1;whiteSpace=wrap;aspect=fixed;shape=isoRectangle;" vertex="1" parent="1">
          <mxGeometry x="1029" y="385" width="94" height="56.4" as="geometry" />
        </mxCell>
        <mxCell id="66wu1TtqMLCLMsSseU4n-107" value="" style="endArrow=none;html=1;exitX=0.5;exitY=1;exitDx=0;exitDy=0;entryX=0.485;entryY=-0.026;entryDx=0;entryDy=0;entryPerimeter=0;" edge="1" parent="1" source="66wu1TtqMLCLMsSseU4n-86" target="66wu1TtqMLCLMsSseU4n-106">
          <mxGeometry width="50" height="50" relative="1" as="geometry">
            <mxPoint x="742" y="302" as="sourcePoint" />
            <mxPoint x="792" y="252" as="targetPoint" />
          </mxGeometry>
        </mxCell>
        <mxCell id="66wu1TtqMLCLMsSseU4n-108" value="" style="endArrow=none;html=1;entryX=0.238;entryY=0.783;entryDx=0;entryDy=0;entryPerimeter=0;exitX=1;exitY=0.75;exitDx=0;exitDy=0;" edge="1" parent="1" source="66wu1TtqMLCLMsSseU4n-13" target="66wu1TtqMLCLMsSseU4n-106">
          <mxGeometry width="50" height="50" relative="1" as="geometry">
            <mxPoint x="742" y="302" as="sourcePoint" />
            <mxPoint x="792" y="252" as="targetPoint" />
          </mxGeometry>
        </mxCell>
        <mxCell id="66wu1TtqMLCLMsSseU4n-128" value="1" style="edgeLabel;html=1;align=center;verticalAlign=middle;resizable=0;points=[];" vertex="1" connectable="0" parent="66wu1TtqMLCLMsSseU4n-108">
          <mxGeometry x="-0.3125" y="-5" relative="1" as="geometry">
            <mxPoint y="6" as="offset" />
          </mxGeometry>
        </mxCell>
        <mxCell id="66wu1TtqMLCLMsSseU4n-110" value="1" style="text;html=1;align=center;verticalAlign=middle;resizable=0;points=[];autosize=1;" vertex="1" parent="1">
          <mxGeometry x="281" y="164" width="21" height="28" as="geometry" />
        </mxCell>
        <mxCell id="66wu1TtqMLCLMsSseU4n-115" value="1" style="text;html=1;align=center;verticalAlign=middle;resizable=0;points=[];autosize=1;" vertex="1" parent="1">
          <mxGeometry x="444" y="115" width="21" height="28" as="geometry" />
        </mxCell>
        <mxCell id="66wu1TtqMLCLMsSseU4n-116" value="m" style="text;html=1;align=center;verticalAlign=middle;resizable=0;points=[];autosize=1;" vertex="1" parent="1">
          <mxGeometry x="500" y="94" width="21" height="28" as="geometry" />
        </mxCell>
        <mxCell id="66wu1TtqMLCLMsSseU4n-119" value="1" style="text;html=1;align=center;verticalAlign=middle;resizable=0;points=[];autosize=1;" vertex="1" parent="1">
          <mxGeometry x="374" y="199" width="21" height="28" as="geometry" />
        </mxCell>
        <mxCell id="66wu1TtqMLCLMsSseU4n-120" value="1" style="text;html=1;align=center;verticalAlign=middle;resizable=0;points=[];autosize=1;" vertex="1" parent="1">
          <mxGeometry x="416" y="241" width="21" height="28" as="geometry" />
        </mxCell>
        <mxCell id="66wu1TtqMLCLMsSseU4n-121" value="1" style="text;html=1;align=center;verticalAlign=middle;resizable=0;points=[];autosize=1;" vertex="1" parent="1">
          <mxGeometry x="374" y="283" width="21" height="28" as="geometry" />
        </mxCell>
        <mxCell id="66wu1TtqMLCLMsSseU4n-122" value="1" style="text;html=1;align=center;verticalAlign=middle;resizable=0;points=[];autosize=1;" vertex="1" parent="1">
          <mxGeometry x="325" y="311" width="21" height="28" as="geometry" />
        </mxCell>
        <mxCell id="66wu1TtqMLCLMsSseU4n-123" value="n" style="text;html=1;align=center;verticalAlign=middle;resizable=0;points=[];autosize=1;" vertex="1" parent="1">
          <mxGeometry x="391" y="374" width="21" height="28" as="geometry" />
        </mxCell>
        <mxCell id="66wu1TtqMLCLMsSseU4n-124" value="n" style="text;html=1;align=center;verticalAlign=middle;resizable=0;points=[];autosize=1;" vertex="1" parent="1">
          <mxGeometry x="493" y="416" width="21" height="28" as="geometry" />
        </mxCell>
        <mxCell id="66wu1TtqMLCLMsSseU4n-125" value="1" style="text;html=1;align=center;verticalAlign=middle;resizable=0;points=[];autosize=1;" vertex="1" parent="1">
          <mxGeometry x="598" y="409" width="21" height="28" as="geometry" />
        </mxCell>
        <mxCell id="66wu1TtqMLCLMsSseU4n-126" value="1" style="text;html=1;align=center;verticalAlign=middle;resizable=0;points=[];autosize=1;" vertex="1" parent="1">
          <mxGeometry x="521" y="346" width="21" height="28" as="geometry" />
        </mxCell>
        <mxCell id="66wu1TtqMLCLMsSseU4n-127" value="1" style="text;html=1;align=center;verticalAlign=middle;resizable=0;points=[];autosize=1;" vertex="1" parent="1">
          <mxGeometry x="745" y="388" width="21" height="28" as="geometry" />
        </mxCell>
        <mxCell id="66wu1TtqMLCLMsSseU4n-129" value="1" style="text;html=1;align=center;verticalAlign=middle;resizable=0;points=[];autosize=1;" vertex="1" parent="1">
          <mxGeometry x="563" y="248" width="21" height="28" as="geometry" />
        </mxCell>
        <mxCell id="66wu1TtqMLCLMsSseU4n-130" value="n" style="text;html=1;align=center;verticalAlign=middle;resizable=0;points=[];autosize=1;" vertex="1" parent="1">
          <mxGeometry x="703" y="262" width="21" height="28" as="geometry" />
        </mxCell>
        <mxCell id="66wu1TtqMLCLMsSseU4n-131" value="1" style="text;html=1;align=center;verticalAlign=middle;resizable=0;points=[];autosize=1;" vertex="1" parent="1">
          <mxGeometry x="787" y="283" width="21" height="28" as="geometry" />
        </mxCell>
        <mxCell id="66wu1TtqMLCLMsSseU4n-132" value="n" style="text;html=1;align=center;verticalAlign=middle;resizable=0;points=[];autosize=1;" vertex="1" parent="1">
          <mxGeometry x="822" y="325" width="21" height="28" as="geometry" />
        </mxCell>
        <mxCell id="66wu1TtqMLCLMsSseU4n-133" value="Doctor&#39;s name" style="ellipse;whiteSpace=wrap;html=1;" vertex="1" parent="1">
          <mxGeometry x="656.66" y="57.75" width="64" height="35" as="geometry" />
        </mxCell>
        <mxCell id="66wu1TtqMLCLMsSseU4n-135" value="" style="endArrow=none;html=1;exitX=1;exitY=0.5;exitDx=0;exitDy=0;" edge="1" parent="1" source="66wu1TtqMLCLMsSseU4n-51">
          <mxGeometry width="50" height="50" relative="1" as="geometry">
            <mxPoint x="805" y="316" as="sourcePoint" />
            <mxPoint x="857" y="182" as="targetPoint" />
          </mxGeometry>
        </mxCell>
        <mxCell id="66wu1TtqMLCLMsSseU4n-137" value="n" style="edgeLabel;html=1;align=center;verticalAlign=middle;resizable=0;points=[];" vertex="1" connectable="0" parent="66wu1TtqMLCLMsSseU4n-135">
          <mxGeometry x="-0.6175" y="-6" relative="1" as="geometry">
            <mxPoint y="7" as="offset" />
          </mxGeometry>
        </mxCell>
        <mxCell id="66wu1TtqMLCLMsSseU4n-138" value="n" style="edgeLabel;html=1;align=center;verticalAlign=middle;resizable=0;points=[];" vertex="1" connectable="0" parent="66wu1TtqMLCLMsSseU4n-135">
          <mxGeometry x="0.2981" y="6" relative="1" as="geometry">
            <mxPoint y="-3" as="offset" />
          </mxGeometry>
        </mxCell>
        <mxCell id="66wu1TtqMLCLMsSseU4n-139" value="1" style="text;html=1;align=center;verticalAlign=middle;resizable=0;points=[];autosize=1;" vertex="1" parent="1">
          <mxGeometry x="899" y="173" width="21" height="28" as="geometry" />
        </mxCell>
        <mxCell id="66wu1TtqMLCLMsSseU4n-140" value="n" style="text;html=1;align=center;verticalAlign=middle;resizable=0;points=[];autosize=1;" vertex="1" parent="1">
          <mxGeometry x="1022" y="262" width="21" height="28" as="geometry" />
        </mxCell>
      </root>
    </mxGraphModel>
  </diagram>
</mxfile>
